PathFileType   4   (X/Y/Z)
DataRate	CameraRate	NumFrames	NumMarkers	Units	OrigDataRate	OrigDataStartFrame	OrigNumFrames
120.0	120.0	7	37	mm	120.0	30	116
Frame#	Time	midhip	hip_r	hip_l	knee_r	knee_l	ankle_r	ankle_l	midasis	asis_r	asis_l	psis_r	psis_l	epicondLat_r	epicondLat_l	epicondMed_r	epicondMed_l	malleolusLat_r	malleolusLat_l	malleolusMedv_r	malleolusMedv_l	neck	subclavicle_r	subclavicle_l	sternalnotch	xyphoidprocess	thighwand_r	thighwand_l	upperleg1_r	upperleg1_l	upperleg2_r	upperleg2_l	shankwand_r	shankwand_l	lowerleg1_r	lowerleg1_l	toe_r	toe_l
 	 	X1	Y1	Z1	X2	Y2	Z2	X3	Y3	Z3	X4	Y4	Z4	X5	Y5	Z5	X6	Y6	Z6	X7	Y7	Z7	X8	Y8	Z8	X9	Y9	Z9	X10	Y10	Z10	X11	Y11	Z11	X12	Y12	Z12	X13	Y13	Z13	X14	Y14	Z14	X15	Y15	Z15	X16	Y16	Z16	X17	Y17	Z17	X18	Y18	Z18	X19	Y19	Z19	X20	Y20	Z20	X21	Y21	Z21	X22	Y22	Z22	X23	Y23	Z23	X24	Y24	Z24	X25	Y25	Z25	X26	Y26	Z26	X27	Y27	Z27	X28	Y28	Z28	X29	Y29	Z29	X30	Y30	Z30	X31	Y31	Z31	X32	Y32	Z32	X33	Y33	Z33	X34	Y34	Z34	X35	Y35	Z35	X36	Y36	Z36	X37	Y37	Z37

	30	0.35000	1471.758	690.460	-161.018	1463.991	697.660	-94.853	1467.643	694.938	-220.599	1418.734	388.413	-123.528	1629.163	407.300	-225.385	1349.056	64.311	-127.729	1620.607	91.859	-214.742	1532.027	759.270	-157.166	1529.307	761.297	-63.532	1534.747	757.244	-250.800	1389.024	800.283	-147.080	1389.272	791.379	-201.342	1420.898	383.440	-73.320	1623.134	404.739	-274.954	1414.276	394.034	-171.542	1639.292	412.785	-178.994	1343.949	64.980	-94.628	1607.969	91.119	-246.835	1347.198	74.832	-155.144	1618.834	98.503	-185.598	1441.272	1146.630	-156.473	1523.731	1102.577	-100.417	1518.942	1106.774	-225.865	1515.680	1092.658	-165.954	1541.104	951.384	-170.851	1438.933	470.003	13.660	1692.586	569.850	-275.961	1475.071	532.458	-48.923	1604.958	586.451	-208.468	1474.697	450.736	-72.703	1639.845	505.538	-205.078	1352.956	164.534	-19.320	1697.239	183.406	-273.611	1371.462	220.072	-78.612	1650.186	242.774	-244.492	1442.412	38.764	-124.609	1704.589	66.340	-227.713
	31	0.35833	1482.107	688.734	-161.040	1473.829	695.932	-94.947	1478.514	693.098	-220.657	1421.075	388.311	-123.160	1641.498	406.171	-224.391	1349.193	64.678	-128.138	1653.153	89.512	-216.749	1542.263	757.605	-156.761	1538.772	759.716	-63.090	1545.754	755.494	-250.431	1398.861	798.494	-147.810	1399.655	789.404	-201.988	1422.983	383.377	-72.938	1634.628	402.912	-273.809	1417.088	394.060	-171.542	1661.361	412.569	-177.902	1343.860	65.353	-95.072	1640.033	88.260	-248.632	1347.306	75.308	-155.669	1651.889	95.808	-187.329	1451.486	1144.735	-156.587	1534.113	1100.739	-100.663	1528.201	1104.686	-226.260	1525.936	1090.769	-166.022	1550.518	949.362	-171.019	1442.927	469.589	13.957	1702.011	567.200	-277.587	1479.518	531.310	-48.568	1625.075	585.149	-211.111	1478.259	449.882	-72.576	1660.147	504.364	-207.188	1353.044	164.900	-19.538	1722.460	186.892	-275.726	1372.149	220.318	-78.705	1671.969	242.492	-245.502	1442.334	38.736	-124.685	1738.530	69.520	-230.637
	32	0.36667	1492.541	686.738	-161.029	1483.752	693.967	-95.036	1489.536	690.960	-220.696	1423.772	388.115	-122.779	1653.540	404.628	-223.245	1349.370	65.042	-128.438	1685.038	88.063	-218.943	1552.605	755.680	-156.342	1548.293	757.922	-62.661	1556.917	753.438	-250.024	1408.747	796.445	-148.630	1410.112	787.145	-202.722	1425.373	383.244	-72.540	1645.826	400.648	-272.486	1420.140	393.797	-171.225	1671.968	409.767	-177.372	1343.828	65.740	-95.407	1671.409	86.277	-250.587	1347.463	75.763	-155.914	1684.412	94.205	-189.499	1461.710	1142.496	-156.709	1544.587	1098.662	-100.858	1537.663	1102.284	-226.252	1536.124	1088.563	-166.105	1560.295	947.086	-170.871	1447.059	469.073	14.275	1711.315	563.937	-279.040	1484.135	530.121	-48.134	1635.173	581.928	-212.062	1481.978	448.895	-72.201	1670.322	501.244	-207.676	1353.319	165.292	-19.666	1746.670	190.738	-278.010	1373.063	220.465	-78.574	1693.159	242.473	-246.386	1442.273	38.704	-124.715	1771.403	73.509	-233.915
	33	0.37500	1502.971	684.483	-160.986	1493.708	691.793	-95.087	1500.616	688.544	-220.684	1426.839	387.831	-122.384	1665.312	402.693	-221.974	1349.591	65.419	-128.631	1716.045	87.496	-221.263	1562.986	753.514	-155.904	1557.835	755.937	-62.241	1568.138	751.091	-249.567	1418.682	794.150	-149.546	1420.641	784.612	-203.549	1428.099	383.040	-72.127	1656.820	398.022	-271.026	1423.444	394.024	-171.181	1682.417	406.516	-176.721	1343.856	66.153	-95.633	1701.913	85.151	-252.648	1347.710	76.188	-156.041	1716.307	93.559	-191.901	1472.042	1140.046	-156.871	1555.143	1096.300	-100.995	1547.812	1099.794	-226.155	1546.288	1086.070	-166.207	1570.702	944.663	-170.810	1451.374	468.465	14.610	1720.611	560.248	-280.140	1489.372	528.588	-47.390	1645.095	578.212	-212.830	1485.959	447.818	-71.735	1680.337	497.723	-207.960	1353.792	165.719	-19.707	1769.825	194.874	-280.352	1374.066	220.542	-78.248	1713.773	242.650	-247.139	1442.234	38.669	-124.699	1803.035	78.248	-237.458
	34	0.38333	1513.347	681.993	-160.892	1503.652	689.443	-95.068	1511.659	685.879	-220.592	1430.292	387.466	-121.977	1676.849	400.405	-220.614	1349.858	65.822	-128.718	1745.960	87.744	-223.632	1573.346	751.132	-155.442	1567.374	753.790	-61.826	1579.318	748.474	-249.057	1428.674	791.631	-150.559	1431.242	781.827	-204.470	1431.196	382.766	-71.704	1667.707	395.119	-269.486	1427.021	394.375	-171.366	1691.985	402.661	-175.916	1343.949	66.608	-95.752	1731.373	84.820	-254.760	1348.011	76.623	-156.065	1747.148	93.841	-194.406	1482.521	1137.434	-157.098	1565.698	1093.654	-101.200	1557.898	1096.781	-226.241	1556.528	1083.347	-166.322	1580.588	941.762	-170.559	1455.918	467.779	14.956	1730.006	556.322	-280.754	1494.866	526.832	-46.532	1654.665	574.003	-213.308	1490.167	446.564	-71.348	1689.820	493.684	-207.898	1354.479	166.190	-19.667	1791.911	199.210	-282.634	1375.314	220.689	-77.978	1733.839	243.134	-248.108	1442.219	38.637	-124.642	1833.269	83.626	-241.141
	35	0.39167	1523.643	679.300	-160.748	1513.578	686.957	-94.951	1522.608	683.004	-220.393	1434.158	387.026	-121.564	1688.202	397.825	-219.206	1350.170	66.268	-128.703	1774.585	88.690	-225.969	1583.660	748.565	-154.956	1576.926	751.513	-61.414	1590.394	745.618	-248.497	1438.733	788.920	-151.662	1441.915	778.825	-205.479	1434.704	382.420	-71.277	1678.581	392.036	-267.929	1430.854	393.117	-170.643	1700.362	398.345	-174.657	1344.110	67.122	-95.767	1759.627	85.186	-256.860	1348.334	77.164	-155.953	1776.677	94.964	-197.248	1493.006	1134.594	-157.422	1576.265	1090.819	-101.483	1567.719	1093.190	-226.424	1566.907	1080.450	-166.470	1590.037	938.423	-169.930	1460.743	467.024	15.303	1739.596	552.340	-280.813	1499.612	525.557	-46.270	1663.973	569.585	-213.298	1494.489	445.228	-70.907	1698.724	489.191	-207.235	1355.399	166.716	-19.552	1812.943	203.637	-284.739	1376.870	221.049	-77.770	1753.230	243.989	-249.177	1442.231	38.608	-124.550	1861.970	89.480	-244.813
	36	0.40000	1533.857	676.450	-160.541	1523.507	684.372	-94.729	1533.450	679.964	-220.087	1438.470	386.514	-121.153	1699.431	395.037	-217.803	1350.533	66.778	-128.590	1801.746	90.170	-228.189	1593.939	745.852	-154.455	1586.527	749.137	-61.007	1601.351	742.567	-247.903	1448.876	786.060	-152.836	1452.661	775.658	-206.558	1438.662	381.997	-70.856	1689.526	388.877	-266.424	1433.777	394.693	-170.502	1709.930	394.321	-172.832	1344.349	67.713	-95.679	1786.526	86.108	-258.883	1348.643	77.835	-155.784	1804.829	96.794	-200.306	1503.465	1131.584	-157.801	1586.890	1087.884	-101.689	1578.039	1089.874	-226.719	1577.420	1077.428	-166.686	1600.369	935.265	-169.745	1465.900	466.210	15.643	1749.455	548.457	-280.319	1507.173	524.128	-45.463	1673.164	565.157	-212.660	1499.049	443.913	-70.452	1708.119	485.011	-205.962	1356.580	167.303	-19.369	1832.953	208.025	-286.568	1378.758	221.441	-77.494	1771.556	244.968	-249.898	1442.272	38.585	-124.427	1889.029	95.592	-248.305
